<?xml version="1.0" standalone="no"?>
<!DOCTYPE svg PUBLIC "-//W3C//DTD SVG 20010904//EN"
 "http://www.w3.org/TR/2001/REC-SVG-20010904/DTD/svg10.dtd">
<svg version="1.0" xmlns="http://www.w3.org/2000/svg"
 width="470.000000pt" height="270.000000pt" viewBox="0 0 470.000000 270.000000"
 preserveAspectRatio="xMidYMid meet">
<metadata>
Created by potrace 1.16, written by Peter Selinger 2001-2019
</metadata>
<g transform="translate(0.000000,270.000000) scale(0.100000,-0.100000)"
fill="white" stroke="none">
<path d="M2262 2347 c-42 -45 -20 -119 38 -132 53 -12 108 41 96 91 -16 63
-92 86 -134 41z"/>
<path d="M2063 2280 c-351 -92 -626 -371 -720 -729 -20 -78 -25 -121 -26 -231
-1 -190 25 -304 105 -465 48 -95 44 -91 62 -76 12 10 7 25 -30 100 -156 312
-130 681 69 976 48 71 173 198 238 242 109 75 329 163 405 163 17 0 24 6 24
20 0 26 -29 26 -127 0z"/>
<path d="M2440 2280 c0 -14 7 -20 23 -20 48 0 185 -43 272 -85 252 -121 445
-354 514 -619 12 -44 23 -81 25 -84 3 -2 11 0 19 5 13 7 13 17 -3 80 -45 173
-133 328 -264 459 -131 130 -262 208 -440 259 -110 31 -146 33 -146 5z"/>
<path d="M2205 2039 c-81 -12 -146 -34 -238 -82 -68 -35 -76 -42 -64 -54 12
-13 23 -10 83 20 220 111 433 114 646 8 65 -32 80 -36 89 -24 14 16 16 13 -42
47 -134 77 -310 109 -474 85z"/>
<path d="M2800 1903 c-77 -40 -106 -153 -60 -229 45 -71 148 -92 224 -45 88
55 91 200 5 262 -43 31 -122 36 -169 12z m152 -49 c11 -11 27 -33 34 -51 40
-95 -68 -195 -162 -150 -89 43 -91 168 -3 215 32 17 104 9 131 -14z"/>
<path d="M2827 1818 c-28 -22 -32 -69 -7 -101 18 -23 29 -28 58 -25 65 6 92
77 46 122 -19 19 -74 21 -97 4z"/>
<path d="M1714 1872 c-63 -50 -57 -156 11 -192 90 -48 195 35 166 131 -16 53
-53 79 -110 79 -28 0 -54 -7 -67 -18z"/>
<path d="M2301 1683 c-7 -26 -17 -66 -23 -88 l-10 -40 -50 55 -50 55 5 -72 c3
-40 4 -73 2 -73 -2 0 -38 20 -79 45 -42 25 -79 45 -81 45 -3 0 16 -33 40 -74
25 -40 45 -76 45 -80 0 -3 -30 -6 -67 -6 l-68 -1 54 -47 53 -48 -78 -18 c-108
-25 -114 -30 -51 -45 29 -6 70 -16 90 -22 l37 -10 -47 -41 c-27 -22 -52 -45
-58 -50 -7 -7 15 -8 63 -3 48 5 72 4 72 -3 0 -6 -19 -41 -41 -77 -23 -36 -39
-68 -36 -71 2 -3 35 13 71 35 37 23 70 41 74 41 4 0 6 -30 5 -67 l-4 -68 50
54 49 53 11 -38 c6 -20 16 -61 22 -91 7 -29 14 -51 17 -49 2 3 14 44 26 92
l22 87 43 -52 c24 -28 46 -49 49 -46 3 3 4 32 3 65 -1 33 1 60 5 60 4 0 38
-18 75 -40 37 -22 70 -40 73 -40 3 0 -15 34 -39 76 -25 42 -45 78 -45 81 0 3
33 2 73 -1 l72 -7 -55 49 -55 50 53 16 c30 8 69 18 89 22 46 9 33 18 -57 39
-41 10 -77 20 -80 22 -2 2 20 26 50 54 l55 49 -74 -6 -75 -7 29 49 c15 27 37
65 49 84 l20 34 -49 -29 c-28 -15 -63 -37 -80 -47 l-30 -18 -5 71 -5 71 -40
-50 c-22 -28 -43 -51 -46 -52 -3 0 -14 33 -23 73 -24 100 -31 108 -45 50z m99
-184 c60 -27 79 -45 106 -104 40 -84 27 -160 -38 -231 -45 -48 -91 -68 -160
-66 -179 4 -268 219 -144 349 67 71 152 90 236 52z"/>
<path d="M1640 1606 c-58 -130 -76 -315 -45 -461 19 -87 77 -210 140 -293 106
-140 298 -253 473 -277 47 -6 52 -5 52 12 0 15 -15 21 -82 35 -205 42 -389
182 -480 365 -63 124 -82 214 -76 356 4 90 10 127 32 187 32 87 36 111 18 117
-7 3 -21 -14 -32 -41z"/>
<path d="M2982 1581 c-10 -6 -8 -24 9 -87 17 -59 23 -107 23 -189 1 -126 -21
-211 -82 -330 -47 -90 -182 -229 -269 -276 -67 -36 -67 -37 -54 -58 8 -12 22
-7 79 27 170 101 294 263 344 450 28 106 28 278 0 381 -22 80 -31 94 -50 82z"/>
<path d="M3178 1035 c-32 -18 -58 -63 -58 -98 0 -13 10 -39 23 -58 67 -100
223 -26 189 90 -20 64 -98 98 -154 66z"/>
<path d="M3108 757 c-130 -188 -330 -326 -554 -382 -167 -43 -351 -39 -513 9
-43 13 -56 13 -63 4 -13 -21 -10 -24 45 -40 103 -32 174 -41 307 -40 111 0
153 5 235 26 229 59 434 200 570 390 38 54 45 70 34 77 -21 13 -21 13 -61 -44z"/>
<path d="M2401 729 c-18 -4 -47 -21 -64 -37 -24 -25 -31 -41 -34 -84 -5 -65
20 -112 72 -134 97 -40 195 19 195 119 0 94 -77 156 -169 136z m104 -71 c53
-63 11 -158 -70 -158 -84 0 -128 106 -67 162 47 45 98 43 137 -4z"/>
</g>
</svg>

